<svg xmlns="http://www.w3.org/2000/svg" width="1200" height="675" viewBox="0 0 1200 675" role="img" aria-labelledby="title desc">
<title id="title">JobTrack dashboard illustration</title>
<desc id="desc">Illustrated dashboard with analytics cards and charts.</desc>
<rect width="1200" height="675" fill="#f3f8fb"/>
<rect x="60" y="60" width="1080" height="555" rx="28" fill="#ffffff" stroke="#9fb3bf" stroke-width="4"/>
<rect x="95" y="110" width="220" height="455" rx="18" fill="#eef5f7"/>
<rect x="350" y="110" width="750" height="100" rx="18" fill="#f9fbfd" stroke="#d7dee5"/>
<rect x="380" y="145" width="140" height="36" rx="12" fill="#d8edf2"/>
<rect x="550" y="145" width="140" height="36" rx="12" fill="#fff1d6"/>
<rect x="720" y="145" width="140" height="36" rx="12" fill="#dff4e7"/>
<rect x="890" y="145" width="140" height="36" rx="12" fill="#fde5e5"/>
<rect x="350" y="240" width="360" height="280" rx="18" fill="#ffffff" stroke="#d7dee5"/>
<rect x="735" y="240" width="365" height="280" rx="18" fill="#ffffff" stroke="#d7dee5"/>
<circle cx="915" cy="380" r="78" fill="none" stroke="#9fd0dd" stroke-width="26"/>
<circle cx="915" cy="380" r="78" fill="none" stroke="#cbd5e1" stroke-width="26" stroke-dasharray="160 330" stroke-linecap="round" transform="rotate(-90 915 380)"/>
<rect x="390" y="275" width="280" height="24" rx="10" fill="#e6edf2"/>
<rect x="390" y="325" width="250" height="24" rx="10" fill="#d8edf2"/>
<rect x="390" y="375" width="210" height="24" rx="10" fill="#cfe8d8"/>
<rect x="390" y="425" width="180" height="24" rx="10" fill="#ffe3b5"/>
</svg>